<mxfile host="Electron" agent="Mozilla/5.0 (Windows NT 10.0; Win64; x64) AppleWebKit/537.36 (KHTML, like Gecko) draw.io/24.7.8 Chrome/128.0.6613.36 Electron/32.0.1 Safari/537.36" version="24.7.8">
  <diagram name="Страница — 1" id="-KptpbDzkFCjGgJNvRW_">
    <mxGraphModel dx="1687" dy="993" grid="1" gridSize="10" guides="1" tooltips="1" connect="1" arrows="1" fold="1" page="1" pageScale="1" pageWidth="4681" pageHeight="3300" math="0" shadow="0">
      <root>
        <mxCell id="0" />
        <mxCell id="1" parent="0" />
        <mxCell id="k4pxaLIg_HC0L-zMjJTz-1" value="Client" style="shape=umlActor;verticalLabelPosition=bottom;verticalAlign=top;html=1;outlineConnect=0;fontSize=14;fontFamily=Times New Roman;" vertex="1" parent="1">
          <mxGeometry x="140" y="340" width="30" height="60" as="geometry" />
        </mxCell>
        <mxCell id="k4pxaLIg_HC0L-zMjJTz-3" value="" style="endArrow=open;html=1;rounded=0;endFill=0;startArrow=open;startFill=0;fontSize=14;fontFamily=Times New Roman;" edge="1" parent="1">
          <mxGeometry width="50" height="50" relative="1" as="geometry">
            <mxPoint x="190" y="360" as="sourcePoint" />
            <mxPoint x="240" y="360" as="targetPoint" />
          </mxGeometry>
        </mxCell>
        <mxCell id="k4pxaLIg_HC0L-zMjJTz-4" value="Gateway service" style="rounded=1;whiteSpace=wrap;html=1;fontSize=14;fontFamily=Times New Roman;" vertex="1" parent="1">
          <mxGeometry x="260" y="330" width="120" height="60" as="geometry" />
        </mxCell>
        <mxCell id="k4pxaLIg_HC0L-zMjJTz-6" value="Discovery service" style="rounded=1;whiteSpace=wrap;html=1;fontSize=14;fontFamily=Times New Roman;" vertex="1" parent="1">
          <mxGeometry x="590" y="820" width="120" height="60" as="geometry" />
        </mxCell>
        <mxCell id="k4pxaLIg_HC0L-zMjJTz-7" value="Config service" style="rounded=1;whiteSpace=wrap;html=1;fontSize=14;fontFamily=Times New Roman;" vertex="1" parent="1">
          <mxGeometry x="650" y="70" width="120" height="60" as="geometry" />
        </mxCell>
        <mxCell id="k4pxaLIg_HC0L-zMjJTz-8" value="Inventory service" style="rounded=1;whiteSpace=wrap;html=1;fontSize=14;fontFamily=Times New Roman;" vertex="1" parent="1">
          <mxGeometry x="530" y="380" width="120" height="60" as="geometry" />
        </mxCell>
        <mxCell id="k4pxaLIg_HC0L-zMjJTz-9" value="Order service" style="rounded=1;whiteSpace=wrap;html=1;fontSize=14;fontFamily=Times New Roman;" vertex="1" parent="1">
          <mxGeometry x="680" y="380" width="120" height="60" as="geometry" />
        </mxCell>
        <mxCell id="k4pxaLIg_HC0L-zMjJTz-10" value="Product service" style="rounded=1;whiteSpace=wrap;html=1;fontSize=14;fontFamily=Times New Roman;" vertex="1" parent="1">
          <mxGeometry x="830" y="380" width="120" height="60" as="geometry" />
        </mxCell>
        <mxCell id="k4pxaLIg_HC0L-zMjJTz-11" value="User service" style="rounded=1;whiteSpace=wrap;html=1;fontSize=14;fontFamily=Times New Roman;" vertex="1" parent="1">
          <mxGeometry x="980" y="380" width="120" height="60" as="geometry" />
        </mxCell>
        <mxCell id="k4pxaLIg_HC0L-zMjJTz-12" value="Inventory&lt;div style=&quot;font-size: 14px;&quot;&gt;service&amp;nbsp;&lt;/div&gt;&lt;div style=&quot;font-size: 14px;&quot;&gt;DB&lt;/div&gt;" style="shape=cylinder3;whiteSpace=wrap;html=1;boundedLbl=1;backgroundOutline=1;size=15;fontSize=14;fontFamily=Times New Roman;" vertex="1" parent="1">
          <mxGeometry x="555" y="480" width="60" height="80" as="geometry" />
        </mxCell>
        <mxCell id="k4pxaLIg_HC0L-zMjJTz-13" value="&lt;div style=&quot;font-size: 14px;&quot;&gt;Order&lt;/div&gt;&lt;div style=&quot;font-size: 14px;&quot;&gt;service&amp;nbsp;&lt;/div&gt;&lt;div style=&quot;font-size: 14px;&quot;&gt;DB&lt;/div&gt;" style="shape=cylinder3;whiteSpace=wrap;html=1;boundedLbl=1;backgroundOutline=1;size=15;fontSize=14;fontFamily=Times New Roman;" vertex="1" parent="1">
          <mxGeometry x="728" y="480" width="60" height="80" as="geometry" />
        </mxCell>
        <mxCell id="k4pxaLIg_HC0L-zMjJTz-14" value="&lt;div style=&quot;font-size: 14px;&quot;&gt;Product&lt;/div&gt;&lt;div style=&quot;font-size: 14px;&quot;&gt;service&amp;nbsp;&lt;/div&gt;&lt;div style=&quot;font-size: 14px;&quot;&gt;DB&lt;/div&gt;" style="shape=cylinder3;whiteSpace=wrap;html=1;boundedLbl=1;backgroundOutline=1;size=15;fontSize=14;fontFamily=Times New Roman;" vertex="1" parent="1">
          <mxGeometry x="860" y="480" width="60" height="80" as="geometry" />
        </mxCell>
        <mxCell id="k4pxaLIg_HC0L-zMjJTz-15" value="&lt;div style=&quot;font-size: 14px;&quot;&gt;User&lt;/div&gt;&lt;div style=&quot;font-size: 14px;&quot;&gt;service&amp;nbsp;&lt;/div&gt;&lt;div style=&quot;font-size: 14px;&quot;&gt;DB&lt;/div&gt;" style="shape=cylinder3;whiteSpace=wrap;html=1;boundedLbl=1;backgroundOutline=1;size=15;fontSize=14;fontFamily=Times New Roman;" vertex="1" parent="1">
          <mxGeometry x="1010" y="480" width="60" height="80" as="geometry" />
        </mxCell>
        <mxCell id="k4pxaLIg_HC0L-zMjJTz-17" value="Keycloak server" style="rounded=1;whiteSpace=wrap;html=1;fontSize=14;fontFamily=Times New Roman;" vertex="1" parent="1">
          <mxGeometry x="1100" y="490" width="120" height="60" as="geometry" />
        </mxCell>
        <mxCell id="k4pxaLIg_HC0L-zMjJTz-18" value="Redis" style="shape=cylinder3;whiteSpace=wrap;html=1;boundedLbl=1;backgroundOutline=1;size=15;fontSize=14;fontFamily=Times New Roman;" vertex="1" parent="1">
          <mxGeometry x="630" y="230" width="60" height="80" as="geometry" />
        </mxCell>
        <mxCell id="k4pxaLIg_HC0L-zMjJTz-19" value="" style="endArrow=open;html=1;rounded=0;endFill=0;startArrow=open;startFill=0;fontSize=14;fontFamily=Times New Roman;" edge="1" parent="1">
          <mxGeometry width="50" height="50" relative="1" as="geometry">
            <mxPoint x="310" y="320" as="sourcePoint" />
            <mxPoint x="650" y="140" as="targetPoint" />
          </mxGeometry>
        </mxCell>
        <mxCell id="k4pxaLIg_HC0L-zMjJTz-22" value="" style="endArrow=open;html=1;rounded=0;endFill=0;startArrow=open;startFill=0;fontSize=14;fontFamily=Times New Roman;" edge="1" parent="1">
          <mxGeometry width="50" height="50" relative="1" as="geometry">
            <mxPoint x="570" y="370" as="sourcePoint" />
            <mxPoint x="670" y="140" as="targetPoint" />
          </mxGeometry>
        </mxCell>
        <mxCell id="k4pxaLIg_HC0L-zMjJTz-25" value="" style="endArrow=open;html=1;rounded=0;endFill=0;startArrow=open;startFill=0;fontSize=14;fontFamily=Times New Roman;" edge="1" parent="1">
          <mxGeometry width="50" height="50" relative="1" as="geometry">
            <mxPoint x="690" y="140" as="sourcePoint" />
            <mxPoint x="730" y="370" as="targetPoint" />
          </mxGeometry>
        </mxCell>
        <mxCell id="k4pxaLIg_HC0L-zMjJTz-26" value="" style="endArrow=open;html=1;rounded=0;endFill=0;startArrow=open;startFill=0;fontSize=14;fontFamily=Times New Roman;" edge="1" parent="1">
          <mxGeometry width="50" height="50" relative="1" as="geometry">
            <mxPoint x="880" y="370" as="sourcePoint" />
            <mxPoint x="710" y="140" as="targetPoint" />
          </mxGeometry>
        </mxCell>
        <mxCell id="k4pxaLIg_HC0L-zMjJTz-28" value="" style="endArrow=open;html=1;rounded=0;endFill=0;startArrow=open;startFill=0;fontSize=14;fontFamily=Times New Roman;" edge="1" parent="1">
          <mxGeometry width="50" height="50" relative="1" as="geometry">
            <mxPoint x="1020" y="370" as="sourcePoint" />
            <mxPoint x="740" y="140" as="targetPoint" />
          </mxGeometry>
        </mxCell>
        <mxCell id="k4pxaLIg_HC0L-zMjJTz-30" value="" style="endArrow=open;html=1;rounded=0;endFill=0;startArrow=open;startFill=0;fontSize=14;fontFamily=Times New Roman;" edge="1" parent="1">
          <mxGeometry width="50" height="50" relative="1" as="geometry">
            <mxPoint x="589.5" y="450" as="sourcePoint" />
            <mxPoint x="589.5" y="470" as="targetPoint" />
          </mxGeometry>
        </mxCell>
        <mxCell id="k4pxaLIg_HC0L-zMjJTz-36" value="" style="endArrow=open;html=1;rounded=0;endFill=0;startArrow=open;startFill=0;fontSize=14;fontFamily=Times New Roman;" edge="1" parent="1">
          <mxGeometry width="50" height="50" relative="1" as="geometry">
            <mxPoint x="760.5" y="451" as="sourcePoint" />
            <mxPoint x="760.5" y="471" as="targetPoint" />
          </mxGeometry>
        </mxCell>
        <mxCell id="k4pxaLIg_HC0L-zMjJTz-38" value="" style="endArrow=open;html=1;rounded=0;endFill=0;startArrow=open;startFill=0;fontSize=14;fontFamily=Times New Roman;" edge="1" parent="1">
          <mxGeometry width="50" height="50" relative="1" as="geometry">
            <mxPoint x="892.5" y="451" as="sourcePoint" />
            <mxPoint x="892.5" y="471" as="targetPoint" />
          </mxGeometry>
        </mxCell>
        <mxCell id="k4pxaLIg_HC0L-zMjJTz-40" value="" style="endArrow=open;html=1;rounded=0;endFill=0;startArrow=open;startFill=0;fontSize=14;fontFamily=Times New Roman;" edge="1" parent="1">
          <mxGeometry width="50" height="50" relative="1" as="geometry">
            <mxPoint x="1044.5" y="451" as="sourcePoint" />
            <mxPoint x="1044.5" y="471" as="targetPoint" />
          </mxGeometry>
        </mxCell>
        <mxCell id="k4pxaLIg_HC0L-zMjJTz-47" value="" style="endArrow=open;html=1;rounded=0;endFill=0;fontSize=14;fontFamily=Times New Roman;startArrow=open;startFill=0;" edge="1" parent="1">
          <mxGeometry width="50" height="50" relative="1" as="geometry">
            <mxPoint x="1106" y="450" as="sourcePoint" />
            <mxPoint x="1126" y="470" as="targetPoint" />
          </mxGeometry>
        </mxCell>
        <mxCell id="k4pxaLIg_HC0L-zMjJTz-50" value="" style="endArrow=open;html=1;rounded=0;endFill=0;startArrow=open;startFill=0;fontSize=14;fontFamily=Times New Roman;" edge="1" parent="1">
          <mxGeometry width="50" height="50" relative="1" as="geometry">
            <mxPoint x="520" y="410" as="sourcePoint" />
            <mxPoint x="630" y="810" as="targetPoint" />
            <Array as="points">
              <mxPoint x="450" y="650" />
            </Array>
          </mxGeometry>
        </mxCell>
        <mxCell id="k4pxaLIg_HC0L-zMjJTz-53" value="" style="endArrow=open;html=1;rounded=0;endFill=0;startArrow=open;startFill=0;fontSize=14;fontFamily=Times New Roman;" edge="1" parent="1">
          <mxGeometry width="50" height="50" relative="1" as="geometry">
            <mxPoint x="720" y="450" as="sourcePoint" />
            <mxPoint x="660" y="800" as="targetPoint" />
            <Array as="points">
              <mxPoint x="710" y="650" />
            </Array>
          </mxGeometry>
        </mxCell>
        <mxCell id="k4pxaLIg_HC0L-zMjJTz-54" value="Kafka server" style="rounded=1;whiteSpace=wrap;html=1;fontSize=14;fontFamily=Times New Roman;" vertex="1" parent="1">
          <mxGeometry x="560" y="640" width="120" height="60" as="geometry" />
        </mxCell>
        <mxCell id="k4pxaLIg_HC0L-zMjJTz-55" value="" style="endArrow=none;html=1;rounded=0;endFill=0;startArrow=open;startFill=0;fontSize=14;fontFamily=Times New Roman;" edge="1" parent="1">
          <mxGeometry width="50" height="50" relative="1" as="geometry">
            <mxPoint x="540" y="450" as="sourcePoint" />
            <mxPoint x="600" y="630" as="targetPoint" />
            <Array as="points">
              <mxPoint x="530" y="560" />
            </Array>
          </mxGeometry>
        </mxCell>
        <mxCell id="k4pxaLIg_HC0L-zMjJTz-56" value="" style="endArrow=none;html=1;rounded=0;endFill=0;startArrow=open;startFill=0;fontSize=14;fontFamily=Times New Roman;" edge="1" parent="1">
          <mxGeometry width="50" height="50" relative="1" as="geometry">
            <mxPoint x="620" y="630" as="sourcePoint" />
            <mxPoint x="705.5" y="450" as="targetPoint" />
            <Array as="points">
              <mxPoint x="690" y="610" />
            </Array>
          </mxGeometry>
        </mxCell>
        <mxCell id="k4pxaLIg_HC0L-zMjJTz-58" value="" style="endArrow=open;html=1;rounded=0;endFill=0;startArrow=open;startFill=0;fontSize=14;fontFamily=Times New Roman;" edge="1" parent="1">
          <mxGeometry width="50" height="50" relative="1" as="geometry">
            <mxPoint x="850" y="450" as="sourcePoint" />
            <mxPoint x="680" y="800" as="targetPoint" />
            <Array as="points">
              <mxPoint x="810" y="610" />
            </Array>
          </mxGeometry>
        </mxCell>
        <mxCell id="k4pxaLIg_HC0L-zMjJTz-59" value="" style="endArrow=open;html=1;rounded=0;endFill=0;startArrow=open;startFill=0;fontSize=14;fontFamily=Times New Roman;" edge="1" parent="1">
          <mxGeometry width="50" height="50" relative="1" as="geometry">
            <mxPoint x="1000" y="450" as="sourcePoint" />
            <mxPoint x="700" y="810" as="targetPoint" />
            <Array as="points">
              <mxPoint x="960" y="610" />
            </Array>
          </mxGeometry>
        </mxCell>
        <mxCell id="k4pxaLIg_HC0L-zMjJTz-62" value="" style="endArrow=open;html=1;rounded=0;endFill=0;startArrow=open;startFill=0;fontSize=14;fontFamily=Times New Roman;" edge="1" parent="1">
          <mxGeometry width="50" height="50" relative="1" as="geometry">
            <mxPoint x="860" y="370" as="sourcePoint" />
            <mxPoint x="680" y="320" as="targetPoint" />
          </mxGeometry>
        </mxCell>
        <mxCell id="k4pxaLIg_HC0L-zMjJTz-63" value="" style="endArrow=open;html=1;rounded=0;endFill=0;startArrow=open;startFill=0;fontSize=14;fontFamily=Times New Roman;" edge="1" parent="1">
          <mxGeometry width="50" height="50" relative="1" as="geometry">
            <mxPoint x="650" y="320" as="sourcePoint" />
            <mxPoint x="590" y="370" as="targetPoint" />
          </mxGeometry>
        </mxCell>
        <mxCell id="k4pxaLIg_HC0L-zMjJTz-64" value="" style="endArrow=open;html=1;rounded=0;endFill=0;startArrow=open;startFill=0;fontSize=14;fontFamily=Times New Roman;" edge="1" parent="1">
          <mxGeometry width="50" height="50" relative="1" as="geometry">
            <mxPoint x="670" y="320" as="sourcePoint" />
            <mxPoint x="700" y="370" as="targetPoint" />
          </mxGeometry>
        </mxCell>
        <mxCell id="k4pxaLIg_HC0L-zMjJTz-65" value="" style="endArrow=open;html=1;rounded=0;endFill=0;startArrow=open;startFill=0;fontSize=14;fontFamily=Times New Roman;" edge="1" parent="1">
          <mxGeometry width="50" height="50" relative="1" as="geometry">
            <mxPoint x="390" y="360" as="sourcePoint" />
            <mxPoint x="520" y="390" as="targetPoint" />
          </mxGeometry>
        </mxCell>
        <mxCell id="k4pxaLIg_HC0L-zMjJTz-67" value="" style="endArrow=open;html=1;rounded=0;endFill=0;startArrow=open;startFill=0;fontSize=14;fontFamily=Times New Roman;" edge="1" parent="1">
          <mxGeometry width="50" height="50" relative="1" as="geometry">
            <mxPoint x="400" y="345" as="sourcePoint" />
            <mxPoint x="690" y="370" as="targetPoint" />
            <Array as="points">
              <mxPoint x="540" y="340" />
            </Array>
          </mxGeometry>
        </mxCell>
        <mxCell id="k4pxaLIg_HC0L-zMjJTz-68" value="" style="endArrow=open;html=1;rounded=0;endFill=0;startArrow=open;startFill=0;fontSize=14;fontFamily=Times New Roman;" edge="1" parent="1">
          <mxGeometry width="50" height="50" relative="1" as="geometry">
            <mxPoint x="390" y="325" as="sourcePoint" />
            <mxPoint x="830" y="370" as="targetPoint" />
            <Array as="points">
              <mxPoint x="530" y="320" />
            </Array>
          </mxGeometry>
        </mxCell>
        <mxCell id="k4pxaLIg_HC0L-zMjJTz-69" value="" style="endArrow=open;html=1;rounded=0;endFill=0;startArrow=open;startFill=0;fontSize=14;fontFamily=Times New Roman;" edge="1" parent="1">
          <mxGeometry width="50" height="50" relative="1" as="geometry">
            <mxPoint x="360" y="315" as="sourcePoint" />
            <mxPoint x="990" y="370" as="targetPoint" />
            <Array as="points">
              <mxPoint x="670" y="210" />
            </Array>
          </mxGeometry>
        </mxCell>
      </root>
    </mxGraphModel>
  </diagram>
</mxfile>
